<svg width="399" height="250" viewBox="0 0 399 250" fill="none" xmlns="http://www.w3.org/2000/svg">
<path fill-rule="evenodd" clip-rule="evenodd" d="M65.5622 233.643C64.4738 231.321 61.7093 230.322 59.3877 231.41C57.0661 232.499 56.0664 235.263 57.1549 237.585C58.2434 239.906 61.0078 240.906 63.3295 239.818C65.6511 238.729 66.6507 235.965 65.5622 233.643ZM91.3081 201.062C90.2196 198.741 87.4552 197.741 85.1336 198.83C82.812 199.918 81.8123 202.683 82.9008 205.004C83.9893 207.326 86.7537 208.325 89.0753 207.237C91.3969 206.149 92.3966 203.384 91.3081 201.062ZM107.075 234.691C105.987 232.37 103.222 231.37 100.901 232.459C98.5789 233.547 97.5792 236.311 98.6677 238.633C99.7562 240.955 102.521 241.954 104.842 240.866C107.164 239.777 108.164 237.013 107.075 234.691ZM231.614 237.834C230.525 235.512 227.761 234.513 225.439 235.601C223.117 236.69 222.118 239.454 223.206 241.776C224.295 244.097 227.059 245.097 229.381 244.009C231.702 242.92 232.702 240.156 231.614 237.834ZM266.952 236.65C269.274 235.561 272.038 236.561 273.126 238.882C274.215 241.204 273.215 243.969 270.894 245.057C268.572 246.145 265.808 245.146 264.719 242.824C263.631 240.503 264.63 237.738 266.952 236.65ZM314.639 239.929C313.551 237.607 310.786 236.607 308.465 237.696C306.143 238.784 305.143 241.549 306.232 243.87C307.32 246.192 310.085 247.192 312.406 246.103C314.728 245.015 315.728 242.25 314.639 239.929ZM356.152 240.977C355.064 238.655 352.299 237.656 349.978 238.744C347.656 239.833 346.656 242.597 347.745 244.919C348.833 247.24 351.598 248.24 353.919 247.151C356.241 246.063 357.241 243.298 356.152 240.977ZM427.215 141C429.537 139.912 432.301 140.911 433.39 143.233C434.478 145.555 433.478 148.319 431.157 149.408C428.835 150.496 426.071 149.496 424.982 147.175C423.894 144.853 424.893 142.089 427.215 141ZM459.136 110.65C458.047 108.329 455.283 107.329 452.961 108.418C450.639 109.506 449.64 112.27 450.728 114.592C451.817 116.914 454.581 117.913 456.903 116.825C459.224 115.736 460.224 112.972 459.136 110.65ZM478.707 75.837C481.028 74.7485 483.793 75.7482 484.881 78.0698C485.97 80.3914 484.97 83.1559 482.649 84.2444C480.327 85.3328 477.562 84.3332 476.474 82.0116C475.386 79.6899 476.385 76.9255 478.707 75.837ZM510.627 45.487C509.539 43.1654 506.774 42.1658 504.453 43.2543C502.131 44.3427 501.131 47.1072 502.22 49.4288C503.308 51.7504 506.073 52.7501 508.394 51.6616C510.716 50.5731 511.716 47.8087 510.627 45.487ZM530.199 10.6736C532.52 9.58517 535.285 10.5848 536.373 12.9064C537.462 15.2281 536.462 17.9925 534.14 19.081C531.819 20.1695 529.054 19.1698 527.966 16.8482C526.877 14.5266 527.877 11.7621 530.199 10.6736ZM142.413 233.507C144.735 232.418 147.499 233.418 148.588 235.74C149.676 238.061 148.677 240.826 146.355 241.914C144.034 243.003 141.269 242.003 140.181 239.681C139.092 237.36 140.092 234.595 142.413 233.507ZM190.101 236.786C189.012 234.464 186.248 233.464 183.926 234.553C181.605 235.641 180.605 238.406 181.693 240.728C182.782 243.049 185.546 244.049 187.868 242.96C190.19 241.872 191.189 239.107 190.101 236.786ZM375.723 206.164C378.045 205.075 380.809 206.075 381.898 208.396C382.986 210.718 381.987 213.482 379.665 214.571C377.344 215.659 374.579 214.66 373.491 212.338C372.402 210.017 373.402 207.252 375.723 206.164ZM407.644 175.814C406.555 173.492 403.791 172.492 401.469 173.581C399.148 174.669 398.148 177.434 399.236 179.755C400.325 182.077 403.089 183.077 405.411 181.988C407.733 180.9 408.732 178.135 407.644 175.814ZM286.91 104.226C289.231 103.138 291.996 104.138 293.084 106.459C294.173 108.781 293.173 111.545 290.851 112.634C288.53 113.722 285.765 112.723 284.677 110.401C283.588 108.079 284.588 105.315 286.91 104.226ZM251.571 105.413C250.483 103.091 247.718 102.092 245.397 103.18C243.075 104.269 242.075 107.033 243.164 109.355C244.252 111.676 247.017 112.676 249.339 111.588C251.66 110.499 252.66 107.735 251.571 105.413ZM203.884 102.132C206.206 101.043 208.97 102.043 210.058 104.365C211.147 106.686 210.147 109.451 207.826 110.539C205.504 111.628 202.74 110.628 201.651 108.307C200.563 105.985 201.562 103.22 203.884 102.132ZM168.546 103.316C167.457 100.995 164.693 99.9952 162.371 101.084C160.049 102.172 159.05 104.937 160.138 107.258C161.227 109.58 163.991 110.579 166.313 109.491C168.634 108.402 169.634 105.638 168.546 103.316ZM364.147 6.48262C366.469 5.39414 369.233 6.39379 370.322 8.71541C371.41 11.037 370.411 13.8015 368.089 14.89C365.767 15.9784 363.003 14.9788 361.914 12.6572C360.826 10.3355 361.826 7.5711 364.147 6.48262ZM318.83 73.8787C317.742 71.5571 314.977 70.5574 312.655 71.6459C310.334 72.7344 309.334 75.4988 310.423 77.8204C311.511 80.1421 314.276 81.1417 316.597 80.0532C318.919 78.9648 319.919 76.2003 318.83 73.8787ZM338.401 39.0631C340.723 37.9746 343.487 38.9743 344.576 41.2959C345.664 43.6175 344.665 46.382 342.343 47.4705C340.021 48.5589 337.257 47.5593 336.168 45.2377C335.08 42.9161 336.08 40.1516 338.401 39.0631ZM340.385 207.348C339.297 205.026 336.532 204.027 334.211 205.115C331.889 206.204 330.889 208.968 331.978 211.29C333.066 213.611 335.831 214.611 338.152 213.523C340.474 212.434 341.474 209.67 340.385 207.348ZM292.698 204.067C295.019 202.978 297.784 203.978 298.872 206.3C299.961 208.621 298.961 211.386 296.639 212.474C294.318 213.563 291.553 212.563 290.465 210.241C289.376 207.92 290.376 205.155 292.698 204.067ZM257.359 205.254C256.271 202.932 253.507 201.932 251.185 203.021C248.863 204.109 247.864 206.874 248.952 209.195C250.041 211.517 252.805 212.517 255.127 211.428C257.448 210.34 258.448 207.575 257.359 205.254ZM209.672 201.972C211.994 200.884 214.758 201.884 215.847 204.205C216.935 206.527 215.935 209.291 213.614 210.38C211.292 211.468 208.528 210.469 207.439 208.147C206.351 205.825 207.35 203.061 209.672 201.972ZM417.623 109.602C416.534 107.28 413.77 106.281 411.448 107.369C409.127 108.458 408.127 111.222 409.215 113.544C410.304 115.865 413.068 116.865 415.39 115.777C417.711 114.688 418.711 111.924 417.623 109.602ZM437.194 74.7887C439.516 73.7002 442.28 74.6998 443.369 77.0215C444.457 79.3431 443.457 82.1075 441.136 83.196C438.814 84.2845 436.05 83.2848 434.961 80.9632C433.873 78.6416 434.872 75.8772 437.194 74.7887ZM469.114 44.4387C468.026 42.1171 465.261 41.1174 462.94 42.2059C460.618 43.2944 459.619 46.0588 460.707 48.3804C461.796 50.7021 464.56 51.7017 466.882 50.6132C469.203 49.5248 470.203 46.7603 469.114 44.4387ZM488.686 9.62541C491.007 8.53693 493.772 9.53658 494.86 11.8582C495.949 14.1798 494.949 16.9443 492.627 18.0327C490.306 19.1212 487.541 18.1216 486.453 15.7999C485.364 13.4783 486.364 10.7139 488.686 9.62541ZM126.646 199.876C128.968 198.787 131.732 199.787 132.821 202.109C133.909 204.43 132.91 207.195 130.588 208.283C128.267 209.372 125.502 208.372 124.414 206.05C123.325 203.729 124.325 200.964 126.646 199.876ZM168.159 200.924C170.481 199.836 173.245 200.835 174.334 203.157C175.422 205.479 174.423 208.243 172.101 209.331C169.779 210.42 167.015 209.42 165.926 207.099C164.838 204.777 165.838 202.013 168.159 200.924ZM366.131 174.765C365.042 172.444 362.278 171.444 359.956 172.532C357.635 173.621 356.635 176.385 357.724 178.707C358.812 181.029 361.577 182.028 363.898 180.94C366.22 179.851 367.219 177.087 366.131 174.765ZM385.702 139.952C388.024 138.863 390.788 139.863 391.877 142.185C392.965 144.506 391.966 147.271 389.644 148.359C387.322 149.448 384.558 148.448 383.469 146.127C382.381 143.805 383.381 141.04 385.702 139.952ZM277.317 72.8303C276.229 70.5087 273.464 69.5091 271.143 70.5976C268.821 71.686 267.821 74.4505 268.91 76.7721C269.998 79.0937 272.763 80.0934 275.084 79.0049C277.406 77.9164 278.406 75.152 277.317 72.8303ZM229.63 69.5492C231.951 68.4607 234.716 69.4604 235.804 71.782C236.893 74.1036 235.893 76.8681 233.572 77.9565C231.25 79.045 228.485 78.0454 227.397 75.7237C226.309 73.4021 227.308 70.6377 229.63 69.5492ZM194.291 70.7359C193.203 68.4143 190.439 67.4147 188.117 68.5031C185.795 69.5916 184.796 72.3561 185.884 74.6777C186.973 76.9993 189.737 77.999 192.059 76.9105C194.38 75.822 195.38 73.0576 194.291 70.7359ZM296.888 38.017C299.21 36.9286 301.975 37.9282 303.063 40.2498C304.152 42.5715 303.152 45.3359 300.83 46.4244C298.509 47.5129 295.744 46.5132 294.656 44.1916C293.567 41.87 294.567 39.1055 296.888 38.017ZM328.809 7.66707C327.72 5.34545 324.956 4.3458 322.634 5.43429C320.313 6.52277 319.313 9.2872 320.401 11.6088C321.49 13.9305 324.254 14.9301 326.576 13.8416C328.898 12.7531 329.897 9.9887 328.809 7.66707ZM318.444 171.486C320.765 170.398 323.53 171.398 324.618 173.719C325.707 176.041 324.707 178.805 322.385 179.894C320.064 180.982 317.299 179.983 316.211 177.661C315.122 175.339 316.122 172.575 318.444 171.486ZM283.105 172.671C282.017 170.349 279.252 169.35 276.931 170.438C274.609 171.527 273.609 174.291 274.698 176.613C275.786 178.934 278.551 179.934 280.872 178.845C283.194 177.757 284.194 174.992 283.105 172.671ZM235.418 169.39C237.74 168.301 240.504 169.301 241.592 171.622C242.681 173.944 241.681 176.709 239.36 177.797C237.038 178.886 234.274 177.886 233.185 175.564C232.097 173.243 233.096 170.478 235.418 169.39ZM200.08 170.576C198.991 168.255 196.227 167.255 193.905 168.344C191.583 169.432 190.584 172.197 191.672 174.518C192.761 176.84 195.525 177.839 197.847 176.751C200.168 175.662 201.168 172.898 200.08 170.576ZM395.681 73.7403C398.003 72.6518 400.767 73.6515 401.856 75.9731C402.944 78.2947 401.944 81.0592 399.623 82.1477C397.301 83.2361 394.537 82.2365 393.448 79.9149C392.36 77.5932 393.36 74.8288 395.681 73.7403ZM427.602 43.3926C426.513 41.071 423.749 40.0714 421.427 41.1598C419.105 42.2483 418.106 45.0128 419.194 47.3344C420.283 49.656 423.047 50.6556 425.369 49.5672C427.69 48.4787 428.69 45.7142 427.602 43.3926ZM447.173 8.57706C449.494 7.48858 452.259 8.48822 453.347 10.8098C454.436 13.1315 453.436 15.8959 451.115 16.9844C448.793 18.0729 446.028 17.0732 444.94 14.7516C443.852 12.43 444.851 9.66554 447.173 8.57706ZM117.054 168.48C115.965 166.158 113.201 165.158 110.879 166.247C108.558 167.335 107.558 170.1 108.647 172.421C109.735 174.743 112.5 175.743 114.821 174.654C117.143 173.566 118.142 170.801 117.054 168.48ZM152.392 167.295C154.714 166.207 157.478 167.206 158.567 169.528C159.655 171.85 158.656 174.614 156.334 175.703C154.012 176.791 151.248 175.791 150.159 173.47C149.071 171.148 150.071 168.384 152.392 167.295ZM350.364 141.136C349.275 138.815 346.511 137.815 344.189 138.904C341.868 139.992 340.868 142.757 341.957 145.078C343.045 147.4 345.81 148.399 348.131 147.311C350.453 146.222 351.452 143.458 350.364 141.136ZM369.935 106.323C372.257 105.235 375.021 106.234 376.11 108.556C377.198 110.878 376.199 113.642 373.877 114.73C371.555 115.819 368.791 114.819 367.703 112.498C366.614 110.176 367.614 107.412 369.935 106.323ZM261.55 39.2015C260.462 36.8799 257.697 35.8802 255.376 36.9687C253.054 38.0572 252.054 40.8216 253.143 43.1432C254.231 45.4649 256.996 46.4645 259.317 45.376C261.639 44.2876 262.639 41.5231 261.55 39.2015ZM213.863 35.9204C216.184 34.8319 218.949 35.8315 220.037 38.1531C221.126 40.4748 220.126 43.2392 217.805 44.3277C215.483 45.4162 212.718 44.4165 211.63 42.0949C210.542 39.7733 211.541 37.0088 213.863 35.9204ZM287.296 6.61872C286.208 4.2971 283.443 3.29745 281.121 4.38593C278.8 5.47442 277.8 8.23885 278.889 10.5605C279.977 12.8821 282.742 13.8818 285.063 12.7933C287.385 11.7048 288.385 8.94035 287.296 6.61872ZM302.677 137.858C304.998 136.769 307.763 137.769 308.851 140.09C309.94 142.412 308.94 145.176 306.618 146.265C304.297 147.353 301.532 146.354 300.444 144.032C299.355 141.71 300.355 138.946 302.677 137.858ZM267.338 139.042C266.25 136.72 263.485 135.721 261.164 136.809C258.842 137.898 257.842 140.662 258.931 142.984C260.019 145.305 262.784 146.305 265.106 145.217C267.427 144.128 268.427 141.364 267.338 139.042ZM219.651 135.761C221.973 134.672 224.737 135.672 225.825 137.994C226.914 140.315 225.914 143.08 223.593 144.168C221.271 145.257 218.507 144.257 217.418 141.935C216.33 139.614 217.329 136.849 219.651 135.761ZM184.313 136.945C183.224 134.624 180.46 133.624 178.138 134.712C175.816 135.801 174.817 138.565 175.905 140.887C176.994 143.209 179.758 144.208 182.08 143.12C184.401 142.031 185.401 139.267 184.313 136.945ZM379.914 40.1115C382.236 39.023 385 40.0226 386.089 42.3443C387.177 44.6659 386.178 47.4303 383.856 48.5188C381.534 49.6073 378.77 48.6077 377.681 46.286C376.593 43.9644 377.593 41.2 379.914 40.1115ZM411.835 9.76148C410.746 7.43986 407.982 6.44021 405.66 7.52869C403.338 8.61718 402.339 11.3816 403.427 13.7032C404.516 16.0249 407.28 17.0245 409.602 15.936C411.923 14.8475 412.923 12.0831 411.835 9.76148ZM136.625 133.666C138.947 132.578 141.711 133.578 142.8 135.899C143.888 138.221 142.889 140.985 140.567 142.074C138.245 143.162 135.481 142.163 134.392 139.841C133.304 137.519 134.304 134.755 136.625 133.666ZM334.597 107.508C333.508 105.186 330.744 104.186 328.422 105.275C326.101 106.363 325.101 109.128 326.19 111.449C327.278 113.771 330.043 114.771 332.364 113.682C334.686 112.594 335.685 109.829 334.597 107.508ZM354.168 72.6943C356.49 71.6058 359.254 72.6054 360.343 74.927C361.431 77.2487 360.432 80.0131 358.11 81.1016C355.788 82.1901 353.024 81.1904 351.935 78.8688C350.847 76.5472 351.847 73.7827 354.168 72.6943ZM245.783 5.57263C244.695 3.25102 241.93 2.25136 239.609 3.33984C237.287 4.42832 236.287 7.19277 237.376 9.51439C238.464 11.836 241.229 12.8357 243.55 11.7472C245.872 10.6587 246.872 7.89425 245.783 5.57263Z" fill="url(#paint0_linear)"/>
<defs>
<linearGradient id="paint0_linear" x1="57.1552" y1="237.585" x2="399.502" y2="111.499" gradientUnits="userSpaceOnUse">
<stop offset="0.230476" stop-color="#511E9F" stop-opacity="0"/>
<stop offset="1" stop-color="#511E9F" stop-opacity="0.17"/>
</linearGradient>
</defs>
</svg>
