<svg width="20" height="20" viewBox="0 0 20 20" fill="none" xmlns="http://www.w3.org/2000/svg">
<g opacity="0.6">
<path d="M5 7C6.10457 7 7 6.10457 7 5C7 3.89543 6.10457 3 5 3C3.89543 3 3 3.89543 3 5C3 6.10457 3.89543 7 5 7Z" fill="white"/>
<path d="M8.14549 8.24116V17.9992H11.303V13.1736C11.303 11.9003 11.5526 10.6672 13.198 10.6672C14.8207 10.6672 14.8408 12.123 14.8408 13.254V18H18V12.6487C18 10.0201 17.4102 8 14.2083 8C12.671 8 11.6406 8.80949 11.2192 9.57556H11.1765V8.24116H8.14549V8.24116ZM3 8.24116H6.16252V17.9992H3V8.24116Z" fill="white"/>
</g>
</svg>
