<svg width="24" height="24" viewBox="0 0 24 24" fill="none" xmlns="http://www.w3.org/2000/svg">
<path d="M3.00049 5C3.00049 3.34315 4.34363 2 6.00049 2H20.0005C21.6573 2 23.0005 3.34315 23.0005 5V15C23.0005 16.6569 21.6573 18 20.0005 18H6.00049C4.34363 18 3.00049 16.6569 3.00049 15V5Z" fill="#FEEDF6"/>
<path d="M11.0005 5L13.0107 8.23316L16.7068 9.1459L14.2531 12.0568L14.5272 15.8541L11.0005 14.42L7.47378 15.8541L7.74787 12.0568L5.29415 9.1459L8.99026 8.23316L11.0005 5Z" fill="#1114A6"/>
<path d="M11.0005 7L12.3406 9.15544L14.8047 9.76393L13.1689 11.7046L13.3516 14.2361L11.0005 13.28L8.64935 14.2361L8.83208 11.7046L7.19626 9.76393L9.66034 9.15544L11.0005 7Z" fill="#FEEDF6"/>
<path d="M16.355 14.9993L18.017 16.4723L20.2354 16.3673L19.3481 18.4032L20.1334 20.4805L17.923 20.2658L16.19 21.6546L15.7112 19.486L13.8548 18.267L15.7693 17.1415L16.355 14.9993Z" fill="#FF96CA"/>
<path d="M11.0005 8L12.0056 9.61658L13.8537 10.0729L12.6268 11.5284L12.7638 13.4271L11.0005 12.71L9.23713 13.4271L9.37418 11.5284L8.14732 10.0729L9.99538 9.61658L11.0005 8Z" fill="#FF96CA"/>
<path d="M5.88092 16.0319L6.26866 17.8955L7.84699 18.9597L6.19436 19.9044L5.66999 21.7343L4.26086 20.4545L2.35846 20.5213L3.1402 18.7856L2.48882 16.997L4.38109 17.2041L5.88092 16.0319Z" fill="#1114A6"/>
<path d="M5.26782 17.7884L5.44009 18.51L6.06706 18.9065L5.43402 19.2934L5.25058 20.0122L4.68707 19.5297L3.94673 19.5774L4.2315 18.8923L3.95738 18.2029L4.69689 18.2621L5.26782 17.7884Z" fill="#FEEDF6"/>
</svg>
