<svg width="24" height="24" viewBox="0 0 24 24" fill="none" xmlns="http://www.w3.org/2000/svg">
<path d="M12.0096 2.01904C6.51455 2.01904 2.01855 6.51504 2.01855 12.01C2.01855 17.504 6.51455 22 12.0096 22C17.5036 22 21.9996 17.504 21.9996 12.01C21.9996 6.51504 17.5536 2.01904 12.0096 2.01904ZM16.6046 16.455C16.4056 16.754 16.0556 16.855 15.7546 16.656C13.4056 15.206 10.4586 14.906 6.96156 15.705C6.61356 15.807 6.31355 15.557 6.21355 15.256C6.11256 14.906 6.36255 14.608 6.66355 14.507C10.4586 13.657 13.7566 14.008 16.3536 15.607C16.7036 15.756 16.7536 16.155 16.6046 16.455ZM17.8046 13.708C17.5536 14.057 17.1046 14.207 16.7536 13.957C14.0566 12.311 9.96155 11.809 6.81455 12.809C6.41655 12.91 5.96455 12.709 5.86555 12.311C5.76455 11.909 5.96555 11.459 6.36455 11.359C10.0106 10.261 14.5076 10.811 17.6036 12.71C17.9036 12.859 18.0536 13.358 17.8046 13.708ZM17.9036 10.909C14.7066 9.01204 9.36156 8.81204 6.31355 9.76304C6.08176 9.82983 5.83314 9.80476 5.61936 9.69302C5.40557 9.58129 5.24306 9.39148 5.16556 9.16304C5.09759 8.93097 5.12195 8.6816 5.23359 8.46709C5.34523 8.25257 5.53548 8.08952 5.76455 8.01204C9.31155 6.96304 15.1566 7.16204 18.8536 9.36304C19.3026 9.61204 19.4526 10.212 19.2026 10.661C18.9526 11.011 18.3536 11.159 17.9036 10.909Z" fill="white"/>
</svg>
